<?xml version="1.0" encoding="utf-8"?>
<!-- Generator: Adobe Illustrator 23.0.5, SVG Export Plug-In . SVG Version: 6.00 Build 0)  -->
<svg version="1.1" id="Capa_1" xmlns="http://www.w3.org/2000/svg" xmlns:xlink="http://www.w3.org/1999/xlink" x="0px" y="0px"
	 viewBox="0 0 595.28 841.89" style="enable-background:new 0 0 595.28 841.89;" xml:space="preserve">
<style type="text/css">
	.st0{fill:#F5F4F4;}
</style>
<g>
	<path class="st0" d="M334.6,428.14l10.45-2.89l-0.01-4.91l-0.01-4.91l-10.47-2.83c-0.97-4.54-2.77-8.77-5.23-12.53l5.37-9.43
		l-3.48-3.47l-3.48-3.47l-9.42,5.4c-3.77-2.45-8-4.23-12.55-5.19l-2.86-10.46h-4.91h-4.91l-2.86,10.46
		c-4.69,0.99-9.06,2.86-12.92,5.43l-9.48-5.29l-3.43,3.51l-3.43,3.51l5.48,9.37c-2.41,3.79-4.17,8.04-5.09,12.59l-10.44,2.95
		l0.04,4.91l0.04,4.91l10.49,2.76c1,4.53,2.82,8.75,5.3,12.5l-5.31,9.46l3.5,3.45l3.5,3.45l9.39-5.45
		c3.78,2.42,8.03,4.19,12.58,5.13l2.91,10.44l4.91-0.03l4.91-0.03l2.8-10.48c4.53-0.99,8.76-2.79,12.52-5.26l9.45,5.34l3.46-3.49
		l3.46-3.49l-5.43-9.4C331.88,436.93,333.65,432.69,334.6,428.14z M298.01,446.81c-14.54,0-26.32-11.78-26.32-26.32
		c0-14.54,11.78-26.32,26.32-26.32s26.32,11.78,26.32,26.32C324.33,435.02,312.55,446.81,298.01,446.81z"/>
	<path class="st0" d="M303.57,403.6v21.58h-1.38v-24.11h-8.22v24.11h-1.38V403.6c-7.47,0-13.52,7.05-13.52,15.75v5.83h-2.73v8.36
		h43.34v-8.36h-2.58v-5.83C317.09,410.66,311.04,403.6,303.57,403.6z"/>
</g>
</svg>
